<svg xmlns="http://www.w3.org/2000/svg" width="25" height="25" viewBox="0 0 25 25" fill="none">
  <g clip-path="url(#clip0_1_485)">
    <path d="M24.0755 12.0377C24.0755 5.38947 18.686 0 12.0378 0C5.38949 0 1.52588e-05 5.38947 1.52588e-05 12.0377C1.52588e-05 18.046 4.40202 23.0262 10.1569 23.9292V15.5174H7.1004V12.0377H10.1569V9.38567C10.1569 6.36872 11.9541 4.70224 14.7037 4.70224C16.0203 4.70224 17.3983 4.93735 17.3983 4.93735V7.89977H15.8804C14.3851 7.89977 13.9186 8.82775 13.9186 9.78066V12.0377H17.2572L16.7235 15.5174H13.9186V23.9292C19.6735 23.0262 24.0755 18.046 24.0755 12.0377Z" fill="#3C336C"/>
    <path d="M16.7235 15.5173L17.2572 12.0376H13.9186V9.78057C13.9186 8.8286 14.3851 7.89967 15.8804 7.89967H17.3983V4.93726C17.3983 4.93726 16.0208 4.70215 14.7037 4.70215C11.954 4.70215 10.1569 6.36862 10.1569 9.38558V12.0376H7.1004V15.5173H10.1569V23.9291C11.4032 24.1241 12.6723 24.1241 13.9186 23.9291V15.5173H16.7235Z" fill="white"/>
  </g>
  <defs>
    <clipPath id="clip0_1_485">
      <rect width="24.0755" height="24.0755" fill="white"/>
    </clipPath>
  </defs>
</svg>