<svg xmlns="http://www.w3.org/2000/svg" width="25" height="25" viewBox="0 0 25 25" fill="none">
  <g clip-path="url(#clip0_1_487)">
    <path d="M23.2228 0H2.70178C2.23043 0 1.77838 0.187244 1.44508 0.520541C1.11179 0.853838 0.924543 1.30589 0.924543 1.77724V22.2982C0.924543 22.7696 1.11179 23.2216 1.44508 23.5549C1.77838 23.8882 2.23043 24.0755 2.70178 24.0755H23.2228C23.6941 24.0755 24.1462 23.8882 24.4795 23.5549C24.8128 23.2216 25 22.7696 25 22.2982V1.77724C25 1.30589 24.8128 0.853838 24.4795 0.520541C24.1462 0.187244 23.6941 0 23.2228 0ZM8.10037 20.5093H4.48069V9.01158H8.10037V20.5093ZM6.28802 7.41825C5.87743 7.41594 5.47673 7.29205 5.13648 7.06223C4.79623 6.8324 4.53169 6.50693 4.37624 6.1269C4.22079 5.74686 4.1814 5.3293 4.26304 4.9269C4.34468 4.5245 4.54369 4.1553 4.83496 3.8659C5.12622 3.5765 5.49669 3.37986 5.89961 3.30081C6.30252 3.22175 6.71982 3.26382 7.09885 3.42171C7.47788 3.5796 7.80164 3.84622 8.02928 4.18794C8.25692 4.52966 8.37823 4.93115 8.37791 5.34175C8.38178 5.61664 8.33027 5.8895 8.22645 6.14406C8.12262 6.39863 7.96861 6.62968 7.77358 6.82346C7.57856 7.01723 7.34652 7.16976 7.0913 7.27195C6.83607 7.37414 6.56289 7.42389 6.28802 7.41825ZM21.4422 20.5193H17.8242V14.238C17.8242 12.3855 17.0367 11.8137 16.0202 11.8137C14.9468 11.8137 13.8935 12.6229 13.8935 14.2848V20.5193H10.2739V9.01994H13.7548V10.6133H13.8016C14.151 9.90605 15.3748 8.69726 17.2424 8.69726C19.262 8.69726 21.4439 9.89602 21.4439 13.407L21.4422 20.5193Z" fill="#3C336C"/>
  </g>
  <defs>
    <clipPath id="clip0_1_487">
      <rect width="24.0755" height="24.0755" fill="white" transform="translate(0.924545)"/>
    </clipPath>
  </defs>
</svg>