<svg xmlns="http://www.w3.org/2000/svg" width="26" height="25" viewBox="0 0 26 25" fill="none">
  <path d="M13 2.16773C16.2163 2.16773 16.5972 2.18184 17.8621 2.23827C19.0377 2.28999 19.6725 2.48748 20.0957 2.65206C20.6553 2.86837 21.0596 3.13169 21.4781 3.55019C21.9013 3.97339 22.16 4.37308 22.3763 4.93265C22.5409 5.35585 22.7383 5.99535 22.7901 7.16621C22.8465 8.43582 22.8606 8.8167 22.8606 12.0283C22.8606 15.2447 22.8465 15.6255 22.7901 16.8904C22.7383 18.066 22.5409 18.7008 22.3763 19.124C22.16 19.6836 21.8966 20.088 21.4781 20.5065C21.0549 20.9297 20.6553 21.1883 20.0957 21.4046C19.6725 21.5692 19.033 21.7667 17.8621 21.8184C16.5925 21.8748 16.2116 21.8889 13 21.8889C9.78368 21.8889 9.4028 21.8748 8.1379 21.8184C6.96234 21.7667 6.32753 21.5692 5.90433 21.4046C5.34477 21.1883 4.94037 20.925 4.52187 20.5065C4.09867 20.0833 3.84005 19.6836 3.62375 19.124C3.45917 18.7008 3.26167 18.0613 3.20995 16.8904C3.15352 15.6208 3.13942 15.24 3.13942 12.0283C3.13942 8.812 3.15352 8.43111 3.20995 7.16621C3.26167 5.99065 3.45917 5.35585 3.62375 4.93265C3.84005 4.37308 4.10338 3.96869 4.52187 3.55019C4.94508 3.12699 5.34477 2.86837 5.90433 2.65206C6.32753 2.48748 6.96704 2.28999 8.1379 2.23827C9.4028 2.18184 9.78368 2.16773 13 2.16773ZM13 0C9.73196 0 9.32286 0.0141067 8.03915 0.0705336C6.76014 0.12696 5.88082 0.333859 5.11906 0.6301C4.32438 0.940448 3.65196 1.34954 2.98424 2.02196C2.31182 2.68968 1.90273 3.3621 1.59238 4.15208C1.29614 4.91854 1.08924 5.79316 1.03281 7.07217C0.976387 8.36058 0.96228 8.76968 0.96228 12.0377C0.96228 15.3058 0.976387 15.7149 1.03281 16.9986C1.08924 18.2776 1.29614 19.1569 1.59238 19.9187C1.90273 20.7134 2.31182 21.3858 2.98424 22.0535C3.65196 22.7212 4.32438 23.135 5.11436 23.4407C5.88082 23.7369 6.75544 23.9438 8.03445 24.0002C9.31816 24.0567 9.72725 24.0708 12.9953 24.0708C16.2634 24.0708 16.6725 24.0567 17.9562 24.0002C19.2352 23.9438 20.1145 23.7369 20.8763 23.4407C21.6662 23.135 22.3387 22.7212 23.0064 22.0535C23.6741 21.3858 24.0879 20.7134 24.3935 19.9234C24.6898 19.1569 24.8967 18.2823 24.9531 17.0033C25.0095 15.7196 25.0236 15.3105 25.0236 12.0424C25.0236 8.77438 25.0095 8.36528 24.9531 7.08157C24.8967 5.80256 24.6898 4.92324 24.3935 4.16148C24.0973 3.3621 23.6882 2.68968 23.0158 2.02196C22.3481 1.35424 21.6756 0.940448 20.8857 0.634802C20.1192 0.338561 19.2446 0.131663 17.9656 0.0752358C16.6772 0.0141067 16.2681 0 13 0Z" fill="#3C336C"/>
  <path d="M13 5.85425C9.58619 5.85425 6.81657 8.62387 6.81657 12.0377C6.81657 15.4515 9.58619 18.2211 13 18.2211C16.4138 18.2211 19.1835 15.4515 19.1835 12.0377C19.1835 8.62387 16.4138 5.85425 13 5.85425ZM13 16.0487C10.7853 16.0487 8.98901 14.2524 8.98901 12.0377C8.98901 9.82294 10.7853 8.02668 13 8.02668C15.2148 8.02668 17.011 9.82294 17.011 12.0377C17.011 14.2524 15.2148 16.0487 13 16.0487Z" fill="#3C336C"/>
  <path d="M20.8716 5.60985C20.8716 6.40923 20.2227 7.05344 19.428 7.05344C18.6286 7.05344 17.9844 6.40453 17.9844 5.60985C17.9844 4.81047 18.6333 4.16626 19.428 4.16626C20.2227 4.16626 20.8716 4.81517 20.8716 5.60985Z" fill="#3C336C"/>
</svg>