<svg width="106" height="69" viewBox="0 0 106 69" fill="none" xmlns="http://www.w3.org/2000/svg">
<path d="M33.5394 47.6669C28.4362 47.6669 26.0519 40.8068 26.0519 32.7336C26.0519 24.6604 28.4362 17.8003 33.5394 17.8003C25.2989 17.8003 19.9028 23.1545 19.9028 32.7336C19.9028 42.3127 25.2989 47.6669 33.5394 47.6669ZM43.5786 25.748H43.6623V17.8003H43.3695C43.3695 18.8879 42.491 18.8042 40.9851 18.4277C39.6048 18.0094 38.0989 17.8003 36.4675 17.8003C39.9812 17.8003 42.5329 21.1885 43.5786 25.748ZM45.5864 52.2682V32.4408H36.2584C38.1825 32.4408 39.7303 34.2813 39.7303 36.2055V50.9715C39.7303 62.1401 47.0505 68.791 57.4662 68.9584C47.7616 68.5819 45.5864 56.2839 45.5864 52.2682ZM51.1498 55.4473C58.8466 54.2342 63.9916 59.8813 63.9916 63.9388C63.9916 67.9963 60.1433 69.0002 58.972 69.0002C62.1511 69.0002 68.1328 66.9505 68.1328 61.7218C68.1328 56.493 61.3145 52.8538 51.1498 55.4473ZM0.0754385 55.5728C-0.510181 60.2996 2.25059 66.1976 10.5748 66.1976C17.644 66.1976 33.1211 59.8813 38.4754 58.459C27.8087 60.927 17.2257 62.6839 11.8297 62.6839C5.26235 62.6839 -0.0082214 59.2956 0.0754385 55.5728ZM39.2701 58.2917C39.0191 58.3335 38.7682 58.4172 38.4754 58.459C38.7263 58.4172 38.9773 58.3335 39.2701 58.2917Z" fill="#3C336C"/>
<path d="M95.3336 0.106201C84.918 0.315351 77.5977 6.96632 77.5977 18.0931V32.4408H70.1938V33.0264H77.5977V43.6094C77.5977 45.5336 76.05 47.3741 74.1258 47.3741H86.9258C85.0435 47.3741 83.4539 45.5336 83.4539 43.6094V16.8382C83.4539 12.8225 85.6291 0.482671 95.3336 0.106201ZM96.8813 0.106201C98.0526 0.106201 101.859 1.11012 101.859 5.1258C101.859 9.18331 96.714 14.8304 89.0173 13.6591C99.182 16.2526 106 12.5715 106 7.34279C106 2.11404 100.019 0.106201 96.8813 0.106201ZM64.9232 43.6094V21.8578C64.9232 19.9336 66.5128 18.0931 68.437 18.0931H55.5952C57.5193 18.0931 59.067 19.9336 59.067 21.8578V43.6094C59.067 45.5336 57.5193 47.3741 55.5952 47.3741H68.437C66.5128 47.3741 64.9232 45.5336 64.9232 43.6094Z" fill="#3C336C"/>
</svg>
