<svg width="24" height="24" viewBox="0 0 24 24" fill="none" xmlns="http://www.w3.org/2000/svg">
<path fill-rule="evenodd" clip-rule="evenodd" d="M18.3189 14.4326C20.7626 11.2941 20.5419 6.75347 17.6567 3.86829C14.5325 0.744098 9.46722 0.744098 6.34302 3.86829C3.21883 6.99249 3.21883 12.0578 6.34302 15.182C9.22821 18.0672 13.7689 18.2879 16.9074 15.8442C16.9209 15.8595 16.935 15.8745 16.9496 15.8891L21.1923 20.1317C21.5828 20.5223 22.216 20.5223 22.6065 20.1317C22.997 19.7412 22.997 19.1081 22.6065 18.7175L18.3638 14.4749C18.3492 14.4603 18.3342 14.4462 18.3189 14.4326ZM16.2425 5.28251C18.5857 7.62565 18.5857 11.4246 16.2425 13.7678C13.8994 16.1109 10.1004 16.1109 7.75724 13.7678C5.41409 11.4246 5.41409 7.62565 7.75724 5.28251C10.1004 2.93936 13.8994 2.93936 16.2425 5.28251Z" fill="#8E8E8E"/>
</svg>
