<svg xmlns="http://www.w3.org/2000/svg" width="25" height="24" viewBox="0 0 25 24" fill="none">
  <g clip-path="url(#clip0_1_488)">
    <path d="M12.8868 0C6.26281 0 0.88681 5.376 0.88681 12C0.88681 18.624 6.26281 24 12.8868 24C19.5108 24 24.8868 18.624 24.8868 12C24.8868 5.376 19.5108 0 12.8868 0ZM18.4548 8.16C18.2748 10.056 17.4948 14.664 17.0988 16.788C16.9308 17.688 16.5948 17.988 16.2828 18.024C15.5868 18.084 15.0588 17.568 14.3868 17.124C13.3308 16.428 12.7308 15.996 11.7108 15.324C10.5228 14.544 11.2908 14.112 11.9748 13.416C12.1548 13.236 15.2268 10.44 15.2868 10.188C15.2951 10.1498 15.294 10.1102 15.2836 10.0726C15.2731 10.0349 15.2536 10.0004 15.2268 9.972C15.1548 9.912 15.0588 9.936 14.9748 9.948C14.8668 9.972 13.1868 11.088 9.91081 13.296C9.43081 13.62 8.99881 13.788 8.61481 13.776C8.18281 13.764 7.36681 13.536 6.75481 13.332C5.99881 13.092 5.41081 12.96 5.45881 12.54C5.48281 12.324 5.78281 12.108 6.34681 11.88C9.85081 10.356 12.1788 9.348 13.3428 8.868C16.6788 7.476 17.3628 7.236 17.8188 7.236C17.9148 7.236 18.1428 7.26 18.2868 7.38C18.4068 7.476 18.4428 7.608 18.4548 7.704C18.4428 7.776 18.4668 7.992 18.4548 8.16Z" fill="#3C336C"/>
  </g>
  <defs>
    <clipPath id="clip0_1_488">
      <rect width="24" height="24" fill="white" transform="translate(0.88681)"/>
    </clipPath>
  </defs>
</svg>