<svg xmlns="http://www.w3.org/2000/svg" width="25" height="24" viewBox="0 0 25 24" fill="none">
  <g clip-path="url(#clip0_1_490)">
    <path fill-rule="evenodd" clip-rule="evenodd" d="M12.7739 0C19.4011 0 24.7737 5.37254 24.7737 11.9998C24.7737 18.627 19.4011 23.9995 12.7739 23.9995C10.6977 23.9995 8.74422 23.4715 7.03969 22.5428L1.74864 23.4302C1.61823 23.452 1.48451 23.4425 1.35845 23.4027C1.23239 23.3628 1.11755 23.2937 1.02336 23.2009C0.929162 23.1081 0.85828 22.9943 0.816516 22.8689C0.774752 22.7434 0.763293 22.6099 0.783077 22.4792L1.67608 16.5742C1.07785 15.1234 0.771368 13.569 0.774147 11.9998C0.774147 5.37254 6.14669 0 12.7739 0ZM8.24525 6.08359C7.4248 6.08359 6.745 6.77567 6.87225 7.63073C7.11336 9.23367 7.82554 12.1873 9.94419 14.3216C12.1588 16.553 15.3279 17.5074 17.0436 17.8835C17.9321 18.0789 18.6901 17.3756 18.6901 16.5083V14.4723C18.6901 14.4046 18.6696 14.3385 18.6314 14.2827C18.5931 14.227 18.5388 14.1841 18.4757 14.1597L16.2879 13.3192C16.2288 13.2966 16.1646 13.2912 16.1026 13.3035L13.8957 13.7344C12.4725 12.9977 11.6108 12.1717 11.0939 10.927L11.5092 8.67777C11.5203 8.61793 11.5149 8.55618 11.4936 8.49917L10.6731 6.30127C10.6493 6.23753 10.6066 6.18255 10.5508 6.14367C10.495 6.10478 10.4286 6.08383 10.3606 6.08359H8.24525Z" fill="#3C336C"/>
  </g>
  <defs>
    <clipPath id="clip0_1_490">
      <rect width="24" height="24" fill="white" transform="translate(0.773605)"/>
    </clipPath>
  </defs>
</svg>